<!DOCTYPE svg PUBLIC "-//W3C//DTD SVG 1.1//EN" "http://www.w3.org/Graphics/SVG/1.1/DTD/svg11.dtd">
<!-- Uploaded to: SVG Repo, www.svgrepo.com, Transformed by: SVG Repo Mixer Tools -->
<svg height="800px" width="800px" version="1.1" id="Layer_1" xmlns="http://www.w3.org/2000/svg" xmlns:xlink="http://www.w3.org/1999/xlink" viewBox="0 0 480 480" xml:space="preserve" fill="#000000">
<g id="SVGRepo_bgCarrier" stroke-width="0"/>
<g id="SVGRepo_tracerCarrier" stroke-linecap="round" stroke-linejoin="round"/>
<g id="SVGRepo_iconCarrier"> <path style="fill:#FFFFFF;" d="M360,8H120c-8.84,0-16,7.16-16,16v200h272V24C376,15.16,368.84,8,360,8z"/> <g> <path style="fill:#4D4D4D;" d="M360,0H120c-13.232,0-24,10.768-24,24v200c0,4.416,3.584,8,8,8h272c4.416,0,8-3.584,8-8V24 C384,10.768,373.232,0,360,0z M368,216H112V24c0-4.408,3.592-8,8-8h240c4.408,0,8,3.592,8,8V216z"/> <path style="fill:#4D4D4D;" d="M304,64H152c-4.416,0-8,3.584-8,8s3.584,8,8,8h152c4.416,0,8-3.584,8-8S308.416,64,304,64z"/> <path style="fill:#4D4D4D;" d="M272,128H152c-4.416,0-8,3.584-8,8s3.584,8,8,8h120c4.416,0,8-3.584,8-8S276.416,128,272,128z"/> </g> <path style="fill:#ceb0d8;" d="M392,224H184v-40c0-8.84-7.16-16-16-16H24c-8.84,0-16,7.16-16,16v40v232c0,8.84,7.16,16,16,16h384 V240C408,231.16,400.84,224,392,224z"/> <path style="fill:#9658a7;" d="M426.448,472H408V280h45.112c9.888,0,17.408,8.88,15.784,18.632l-26.664,160 C440.944,466.344,434.264,472,426.448,472z"/> <path style="fill:#4D4D4D;" d="M471.424,280.488c-4.568-5.392-11.248-8.488-18.312-8.488H416v-32c0-13.232-10.768-24-24-24H192v-32 c0-13.232-10.768-24-24-24H24c-13.232,0-24,10.768-24,24v272c0,13.232,10.768,24,24,24h384h18.448 c11.784,0,21.736-8.432,23.672-20.056l26.664-160C477.952,292.976,475.992,285.88,471.424,280.488z M16,456V232h80 c4.416,0,8-3.584,8-8s-3.584-8-8-8H16v-32c0-4.408,3.592-8,8-8h144c4.408,0,8,3.592,8,8v40c0,4.416,3.584,8,8,8h208 c4.408,0,8,3.592,8,8v40v184H24C19.592,464,16,460.408,16,456z M434.336,457.312c-0.648,3.872-3.968,6.688-7.888,6.688H416V288 h37.112c2.392,0,4.56,1,6.104,2.832c1.544,1.824,2.176,4.128,1.792,6.488L434.336,457.312z"/> <circle style="fill:#F5B945;" cx="408" cy="120" r="64"/> <g> <path style="fill:#4D4D4D;" d="M408,48c-39.696,0-72,32.304-72,72s32.304,72,72,72s72-32.304,72-72S447.696,48,408,48z M408,176 c-30.88,0-56-25.12-56-56s25.12-56,56-56s56,25.12,56,56S438.88,176,408,176z"/> <path style="fill:#4D4D4D;" d="M440,112h-24V88c0-4.416-3.584-8-8-8s-8,3.584-8,8v24h-24c-4.416,0-8,3.584-8,8s3.584,8,8,8h24v24 c0,4.416,3.584,8,8,8s8-3.584,8-8v-24h24c4.416,0,8-3.584,8-8S444.416,112,440,112z"/> </g> </g>
</svg>