<?xml version="1.0" encoding="iso-8859-1"?>
<!-- Uploaded to: SVG Repo, www.svgrepo.com, Generator: SVG Repo Mixer Tools -->
<svg height="800px" width="800px" version="1.1" id="Layer_1" xmlns="http://www.w3.org/2000/svg" xmlns:xlink="http://www.w3.org/1999/xlink" 
	 viewBox="0 0 512 512" xml:space="preserve">
<path style="fill:#E95353;" d="M481.721,406.498l-28.223-28.223l-84.955-84.957l-28.225-28.222l-93.416-93.417l-28.223-28.224
	l-41.589-41.588l-17.278-17.278l-26.088-26.088l-28.22-28.225c-19.475-19.474-52.095-18.42-72.869,2.356
	c-20.774,20.774-21.829,53.393-2.354,72.868l28.223,28.223l84.955,84.957l28.223,28.223L265.1,340.32l28.221,28.223l84.96,84.959
	l28.221,28.221c19.477,19.475,52.093,18.42,72.869-2.354C500.142,458.591,501.196,425.974,481.721,406.498z"/>
<path style="fill:#F7BD63;" d="M378.277,453.499l-84.96-84.959l-28.221-28.223L171.678,246.9l-28.223-28.223L58.5,133.72
	l-10.782-10.78l-16.632,16.64c-30.65,30.648-30.65,80.351,0,111.004l230.33,230.33c30.65,30.651,80.356,30.651,111.006,0.002
	l16.637-16.638L378.277,453.499z"/>
<g style="opacity:0.15;">
	<path style="fill:#202020;" d="M445.678,474.625c-8.708-1.898-16.882-6.147-23.524-12.791l-28.221-28.221l-84.96-84.959
		l-28.221-28.223l-93.418-93.416l-28.223-28.223l-84.955-84.957l-28.22-28.221c-15.004-15.003-17.809-37.802-8.815-56.981
		c-1.544,1.245-3.05,2.56-4.487,3.997c-20.774,20.774-21.829,53.393-2.354,72.868l28.223,28.223l84.955,84.957l28.223,28.223
		L265.1,340.32l28.221,28.223l84.96,84.959l28.221,28.221c19.477,19.475,52.093,18.42,72.869-2.354
		c3.118-3.118,5.782-6.508,8.009-10.075C474.386,476.897,459.179,478.715,445.678,474.625z"/>
</g>
<g style="opacity:0.15;">
	<path style="fill:#202020;" d="M291.889,472.65c-5.275-3.2-10.26-7.064-14.817-11.621l-230.33-230.33
		c-16.795-16.796-24.363-39.309-22.748-61.275c0.284-9.984,2.448-19.925,6.516-29.239c-30.06,30.694-29.876,79.944,0.575,110.398
		l230.33,230.33c27.285,27.285,69.655,30.258,100.255,8.97C337.674,495.564,311.522,489.826,291.889,472.65z"/>
</g>
<path style="fill:#F7BD63;" d="M464.281,389.056l16.634-16.634c30.65-30.651,30.65-80.354-0.002-111.006L250.581,31.085
	c-30.648-30.65-80.354-30.651-111.004,0l-16.632,16.633"/>
<g>
	<path style="fill:#202020;" d="M475.734,389.057l10.909-10.909c33.761-33.763,33.76-88.696-0.002-122.459L256.307,25.36
		C239.954,9.006,218.21,0,195.08,0h-0.001c-23.129,0-44.877,9.007-61.228,25.36l-10.906,10.906l-11.717-11.717
		C88.631,1.952,50.802,3.008,26.907,26.905C15.399,38.413,8.78,53.466,8.268,69.292c-0.517,16.023,5.266,30.915,16.285,41.935
		l11.716,11.716l-10.91,10.911c-33.762,33.76-33.762,88.692-0.001,122.457l230.33,230.329C272.042,502.993,293.787,512,316.919,512
		h0.001c23.129,0,44.875-9.007,61.227-25.359l10.91-10.911l11.715,11.715c10.885,10.884,25.302,16.28,39.994,16.279
		c15.81,0,31.941-6.248,44.327-18.634c23.896-23.897,24.95-61.722,2.354-84.321L475.734,389.057z M366.696,475.19
		c-13.295,13.295-30.972,20.615-49.777,20.615c-18.806,0-36.483-7.322-49.778-20.617L36.812,244.857
		c-27.447-27.449-27.447-72.107,0-99.552l10.91-10.911l37.89,37.89l291.995,291.995L366.696,475.19z M473.642,473.639
		c-17.585,17.579-45.135,18.636-61.417,2.354l-17.441-17.441l0,0l-1.895-1.895L36.006,99.773
		c-7.819-7.818-11.921-18.459-11.549-29.959c0.378-11.697,5.314-22.869,13.903-31.457C55.941,20.777,83.492,19.717,99.776,36
		l54.309,54.315c3.165,3.161,8.291,3.161,11.453,0c3.163-3.164,3.163-8.29,0-11.453l-31.142-31.144l10.907-10.907
		c13.294-13.295,30.972-20.616,49.777-20.615c18.804,0,36.481,7.321,49.775,20.616l230.333,230.33
		c27.448,27.447,27.449,72.106,0.002,99.552l-10.909,10.909L182.818,96.141c-3.164-3.161-8.29-3.163-11.453,0.001
		c-3.163,3.163-3.163,8.289,0.001,11.453l304.629,304.63C492.278,428.507,491.222,456.058,473.642,473.639z"/>
	<path style="fill:#202020;" d="M422.297,395.564l-37.108-3.575l-3.574-37.104c-0.001-0.01-0.003-0.018-0.004-0.028
		c-0.022-0.214-0.056-0.423-0.093-0.632c-0.011-0.058-0.016-0.118-0.027-0.176c-0.039-0.189-0.09-0.374-0.141-0.558
		c-0.022-0.077-0.037-0.155-0.06-0.231c-0.039-0.124-0.087-0.243-0.132-0.365c-0.048-0.131-0.091-0.265-0.145-0.392
		c-0.004-0.011-0.011-0.022-0.015-0.032c-0.42-0.98-1.025-1.854-1.769-2.584c-0.84-0.827-1.866-1.47-3.016-1.868
		c-0.083-0.029-0.164-0.064-0.247-0.09c-0.112-0.035-0.229-0.059-0.344-0.09c-0.147-0.039-0.294-0.081-0.444-0.112
		c-0.092-0.018-0.188-0.028-0.281-0.044c-0.175-0.029-0.349-0.06-0.527-0.078c-0.013-0.001-0.025-0.004-0.038-0.005l-37.109-3.576
		l-3.575-37.108c-0.001-0.01-0.003-0.019-0.004-0.029c-0.021-0.206-0.054-0.409-0.091-0.612c-0.011-0.065-0.017-0.133-0.031-0.197
		c-0.033-0.167-0.08-0.33-0.124-0.493c-0.027-0.099-0.048-0.202-0.079-0.3c-0.023-0.072-0.052-0.14-0.077-0.212
		c-0.93-2.73-3.248-4.757-6.059-5.319c-0.004-0.001-0.01-0.001-0.014-0.002c-0.258-0.051-0.519-0.09-0.785-0.116
		c-0.008-0.001-0.015-0.002-0.023-0.003l-37.106-3.574l-3.575-37.106c-0.192-1.986-1.087-3.73-2.413-5.02
		c-1.293-1.348-3.052-2.26-5.056-2.453l-37.109-3.576l-3.577-37.107c-0.001-0.01-0.003-0.019-0.004-0.029
		c-0.021-0.205-0.054-0.406-0.09-0.606c-0.012-0.067-0.018-0.137-0.032-0.204c-0.033-0.164-0.079-0.325-0.123-0.486
		c-0.027-0.103-0.049-0.207-0.08-0.308c-0.022-0.069-0.05-0.135-0.073-0.203c-1.015-2.992-3.699-5.143-6.869-5.447
		c-0.004,0-0.009-0.001-0.014-0.002l-37.104-3.574l-3.575-37.106c-0.001-0.01-0.003-0.019-0.004-0.03
		c-0.021-0.201-0.053-0.398-0.087-0.596c-0.012-0.071-0.019-0.144-0.033-0.215c-0.031-0.153-0.074-0.302-0.114-0.452
		c-0.03-0.114-0.055-0.231-0.09-0.343c-0.013-0.043-0.031-0.084-0.045-0.126c-0.994-3.03-3.694-5.212-6.893-5.518
		c-0.005,0-0.011-0.002-0.016-0.002l-37.107-3.575l-3.575-37.108c-0.023-0.231-0.059-0.457-0.1-0.68l-0.138-1.434
		c-0.372-3.858-3.426-6.912-7.284-7.285l-43.752-4.216c-4.468-0.429-8.409,2.833-8.839,7.284c-0.428,4.452,2.832,8.409,7.284,8.839
		l37.108,3.576l3.572,37.105c0.025,0.265,0.064,0.525,0.113,0.781l0.128,1.338c0.373,3.858,3.426,6.911,7.284,7.284l37.106,3.575
		l3.576,37.106c0.373,3.858,3.426,6.911,7.285,7.284l37.104,3.574l3.577,37.107c0.372,3.858,3.426,6.911,7.284,7.284l37.278,3.591
		l3.592,37.279c0.372,3.858,3.426,6.911,7.285,7.284l37.105,3.574l3.576,37.107c0.372,3.858,3.426,6.911,7.284,7.284l37.108,3.576
		l3.574,37.104c0.372,3.859,3.426,6.912,7.284,7.285l43.752,4.216c0.265,0.025,0.527,0.038,0.787,0.038
		c4.122,0,7.648-3.134,8.052-7.322C430.009,399.951,426.748,395.994,422.297,395.564z"/>
</g>
</svg>