<?xml version="1.0" encoding="iso-8859-1"?>
<!-- Uploaded to: SVG Repo, www.svgrepo.com, Generator: SVG Repo Mixer Tools -->
<svg height="800px" width="800px" version="1.1" id="Layer_1" xmlns="http://www.w3.org/2000/svg" xmlns:xlink="http://www.w3.org/1999/xlink" 
	 viewBox="0 0 512 512" xml:space="preserve">
<path style="fill:#DCE0E2;" d="M424.643,74.311c48.75,45.268,79.251,109.917,79.251,181.688
	c0,136.908-110.985,247.892-247.892,247.892C119.093,503.892,8.108,392.907,8.108,256.001S119.093,8.108,256.002,8.108
	c56.668,0,108.892,19.014,150.646,51.01"/>
<path style="fill:#F2B864;" d="M371,352.105c0-13.924,11.287-25.21,25.207-25.21c5.555,0,10.688,1.8,14.853,4.844
	c10.963-22.482,17.119-47.736,17.119-74.431c0-93.931-76.147-170.074-170.076-170.074c-32.247,0-62.396,8.976-88.089,24.563
	c1.592,4.108,2.474,8.569,2.474,13.239c0,20.246-16.412,36.658-36.658,36.658v-22.587c-12.278,12.696-22.592,27.298-30.463,43.32
	c14.921-1.992,30.144,5.395,37.439,19.545c9.275,17.994,2.206,40.103-15.791,49.379l-27.991-54.303
	c-2.694,7.107-4.934,14.437-6.668,21.961c11.543,6.174,19.397,18.339,19.397,32.342c0,14.844-8.828,27.617-21.515,33.382
	c13.116,80.887,83.271,142.65,167.863,142.65c49.115,0,93.359-20.828,124.405-54.122C375.584,368.768,371,360.974,371,352.105z
	 M414.653,295.235c0,13.925-11.285,25.211-25.21,25.211c-13.923,0-25.21-11.286-25.21-25.211c0-13.921,11.287-25.207,25.21-25.207
	C403.368,270.028,414.653,281.315,414.653,295.235z M264.872,368.424c-1.019,1.927-2.126,3.798-3.314,5.614v0.002
	c-12.709,19.464-34.671,32.337-59.651,32.337c-39.325,0-71.202-31.877-71.202-71.205c0-15.889,5.213-30.559,14.011-42.4h-0.002
	c0,0,25.163-43.373,31.228-85.97c0.097-4.961,0.519-9.838,1.282-14.604c0.002-0.025,0.004-0.049,0.004-0.068
	c0.064-2.669,0.536-4.888,1.332-6.733c10.656-46.586,52.324-81.352,102.138-81.352c57.884,0,104.809,46.924,104.809,104.807
	c0,43.037-25.949,79.995-63.043,96.133C289.712,331.915,271.735,357.469,264.872,368.424z M341.209,360.866
	c-13.923,0-25.21-11.286-25.21-25.21c0-13.923,11.287-25.207,25.21-25.207c13.923,0,25.21,11.285,25.21,25.207
	C366.418,349.58,355.131,360.866,341.209,360.866z"/>
<path style="fill:#8C5549;" d="M385.505,208.853c0-57.883-46.925-104.807-104.809-104.807c-49.814,0-91.482,34.766-102.138,81.352
	c-0.796,1.844-1.269,4.064-1.332,6.733c0,0.019-0.002,0.043-0.004,0.068c-0.762,4.765-1.185,9.643-1.282,14.604
	c-6.063,42.597-31.228,85.97-31.228,85.97h0.002c-8.798,11.842-14.011,26.51-14.011,42.4c0,39.328,31.877,71.205,71.202,71.205
	c24.979,0,46.943-12.873,59.651-32.337l0,0v-0.002c1.189-1.817,2.295-3.686,3.314-5.614c6.865-10.955,24.841-36.508,57.59-63.439
	C359.556,288.848,385.505,251.889,385.505,208.853z"/>
<g style="opacity:0.15;">
	<path style="fill:#202020;" d="M157.603,335.172c0-15.889,5.213-30.559,14.011-42.4h-0.001c0,0,25.163-43.373,31.228-85.97
		c0.096-4.961,0.518-9.838,1.282-14.604c0.001-0.025,0.003-0.049,0.003-0.068c0.065-2.669,0.536-4.888,1.332-6.733
		c9.684-42.331,44.975-74.895,88.714-80.492c-4.412-0.565-8.908-0.859-13.474-0.859c-49.814,0-91.482,34.766-102.138,81.352
		c-0.796,1.844-1.269,4.064-1.332,6.733c0,0.019-0.002,0.043-0.004,0.068c-0.762,4.765-1.185,9.643-1.282,14.604
		c-6.063,42.597-31.228,85.97-31.228,85.97h0.002c-8.798,11.842-14.011,26.51-14.011,42.4c0,39.328,31.877,71.205,71.202,71.205
		c4.612,0,9.12-0.441,13.486-1.28C182.484,398.821,157.603,369.912,157.603,335.172z"/>
</g>
<circle style="fill:#4BAA43;" cx="341.206" cy="335.659" r="25.21"/>
<g style="opacity:0.15;">
	<path style="fill:#202020;" d="M342.742,335.656c0-9.009,4.729-16.909,11.838-21.368c-3.877-2.43-8.458-3.841-13.371-3.841
		c-13.923,0-25.21,11.285-25.21,25.207c0,13.924,11.287,25.21,25.21,25.21c4.913,0,9.495-1.411,13.371-3.842
		C347.471,352.568,342.742,344.667,342.742,335.656z"/>
</g>
<g>
	<circle style="fill:#4BAA43;" cx="389.441" cy="295.24" r="25.21"/>
	<circle style="fill:#4BAA43;" cx="396.208" cy="352.102" r="25.21"/>
</g>
<g>
	<path style="fill:#F47C2C;" d="M172.491,125.036c0-20.247-16.412-36.659-36.658-36.659v73.316
		C156.078,161.694,172.491,145.282,172.491,125.036z"/>
	<path style="fill:#F47C2C;" d="M142.809,201.973c-9.28-17.998-31.386-25.066-49.384-15.791l33.592,65.169
		C145.015,242.076,152.084,219.968,142.809,201.973z"/>
	<path style="fill:#F47C2C;" d="M111.756,251.352c0-20.247-16.414-36.659-36.66-36.659v73.316
		C95.342,288.01,111.756,271.598,111.756,251.352z"/>
</g>
<g>
	<path style="fill:#202020;" d="M258.105,79.126c-29.728,0-58.858,7.414-84.797,21.467c-8.001-12.225-21.805-20.323-37.475-20.323
		c-4.479,0-8.108,3.629-8.108,8.108v47.544c-11.004,11.811-20.316,24.992-27.747,39.276c-3.553,0.838-7.012,2.1-10.267,3.778
		c-1.912,0.985-3.354,2.69-4.008,4.738c-0.655,2.049-0.47,4.272,0.517,6.185l3.985,7.729c-1.237,3.477-2.364,6.99-3.38,10.527
		c-3.74-1.016-7.669-1.569-11.727-1.569c-4.479,0-8.108,3.629-8.108,8.108v73.316c0,4.479,3.629,8.108,8.108,8.108
		c3.045,0,6.019-0.308,8.896-0.891c8.189,37.688,28.58,71.967,58.096,97.315c32.249,27.697,73.452,42.949,116.017,42.949
		c47.194,0,92.795-19.003,126.089-52.321c3.73,1.447,7.779,2.251,12.015,2.251c18.372,0,33.319-14.945,33.319-33.316
		c0-8.582-3.264-16.418-8.615-22.33c10.198-22.835,15.374-47.18,15.374-72.467C436.289,159.058,356.356,79.126,258.105,79.126z
		 M259.628,361.571c-0.584,0.897-1.125,1.747-1.627,2.548c-0.105,0.168-0.203,0.338-0.296,0.515c-0.345,0.651-0.717,1.3-1.09,1.948
		c-0.588,1.018-1.197,2.032-1.846,3.026c-11.718,17.948-31.48,28.662-52.861,28.662c-34.791,0-63.094-28.306-63.094-63.097
		c0-13.646,4.292-26.635,12.409-37.565c0.183-0.246,0.351-0.502,0.505-0.766c1.059-1.826,26.026-45.24,32.241-88.896
		c0.046-0.326,0.072-0.654,0.08-0.984c0.09-4.608,0.488-9.144,1.182-13.481c0.031-0.2,0.057-0.409,0.074-0.61
		c0.014-0.165,0.024-0.363,0.028-0.547h0.001c0.036-1.515,0.262-2.764,0.67-3.712c0.197-0.453,0.349-0.923,0.461-1.404
		c10.108-44.19,48.858-75.053,94.234-75.053c53.321,0,96.701,43.38,96.701,96.699c0,10.831-1.806,21.37-5.189,31.266
		c-8.644,25.29-27.583,46.383-52.982,57.432c-0.69,0.301-1.334,0.695-1.914,1.173C286.46,324.092,268.38,348.114,259.628,361.571z
		 M389.443,312.339c-9.431,0-17.102-7.673-17.102-17.103s7.672-17.1,17.102-17.1c9.43,0,17.102,7.671,17.102,17.1
		C406.545,304.666,398.874,312.339,389.443,312.339z M356.126,295.235c0,0.549,0.015,1.094,0.041,1.637
		c0.009,0.181,0.026,0.359,0.037,0.538c0.024,0.361,0.048,0.721,0.082,1.08c0.021,0.212,0.049,0.422,0.073,0.632
		c0.038,0.322,0.076,0.643,0.123,0.963c0.032,0.224,0.071,0.445,0.108,0.667c0.051,0.303,0.103,0.604,0.162,0.904
		c0.044,0.227,0.093,0.453,0.142,0.678c0.064,0.292,0.131,0.583,0.202,0.871c0.055,0.225,0.112,0.45,0.173,0.673
		c0.077,0.286,0.159,0.571,0.243,0.854c0.065,0.219,0.131,0.439,0.201,0.656c0.091,0.284,0.188,0.565,0.286,0.846
		c0.075,0.212,0.147,0.424,0.225,0.633c0.024,0.065,0.045,0.131,0.069,0.196c-0.132-0.079-0.27-0.149-0.403-0.227
		c-0.344-0.2-0.689-0.397-1.04-0.585c-0.198-0.106-0.399-0.205-0.599-0.307c-0.326-0.166-0.655-0.329-0.988-0.484
		c-0.211-0.099-0.424-0.195-0.638-0.289c-0.334-0.147-0.671-0.289-1.011-0.426c-0.213-0.086-0.426-0.172-0.641-0.253
		c-0.361-0.136-0.725-0.264-1.092-0.388c-0.198-0.067-0.394-0.137-0.594-0.201c-0.455-0.145-0.916-0.277-1.378-0.402
		c-0.115-0.031-0.227-0.067-0.342-0.097c-0.578-0.15-1.162-0.283-1.751-0.402c-0.168-0.034-0.338-0.059-0.506-0.091
		c-0.426-0.079-0.854-0.155-1.285-0.217c-0.223-0.032-0.448-0.057-0.671-0.085c-0.386-0.048-0.772-0.092-1.162-0.126
		c-0.107-0.01-0.213-0.026-0.321-0.035c0.146-0.098,0.285-0.203,0.43-0.302c0.507-0.345,1.004-0.701,1.504-1.054
		c0.594-0.418,1.186-0.836,1.77-1.265c0.494-0.363,0.978-0.735,1.466-1.105c0.572-0.436,1.144-0.87,1.707-1.316
		c0.484-0.383,0.961-0.775,1.439-1.165c0.549-0.45,1.097-0.901,1.638-1.359c0.473-0.403,0.94-0.813,1.408-1.223
		c0.325-0.285,0.658-0.562,0.98-0.852c-0.007,0.086-0.003,0.175-0.01,0.262C356.157,293.786,356.126,294.507,356.126,295.235z
		 M341.209,318.556c9.431,0,17.102,7.671,17.102,17.1c0,9.431-7.672,17.102-17.102,17.102c-9.43,0-17.102-7.672-17.102-17.102
		C324.107,326.226,331.778,318.556,341.209,318.556z M373.646,327.618c-0.027,0.025-0.056,0.045-0.083,0.07
		c-0.013-0.053-0.03-0.104-0.043-0.157c-0.151-0.602-0.316-1.2-0.499-1.788c-0.008-0.025-0.017-0.049-0.025-0.074
		c-0.178-0.564-0.373-1.121-0.579-1.672c-0.021-0.054-0.037-0.111-0.057-0.165c0.105,0.063,0.214,0.117,0.32,0.179
		c0.4,0.234,0.803,0.462,1.214,0.679c0.183,0.097,0.368,0.189,0.551,0.283c0.381,0.192,0.765,0.378,1.153,0.557
		c0.111,0.051,0.217,0.109,0.329,0.159c-0.059,0.045-0.112,0.098-0.171,0.145C375.03,326.4,374.324,326.993,373.646,327.618z
		 M420.073,257.307c0,7.382-0.483,14.675-1.447,21.864c-0.051-0.093-0.11-0.181-0.162-0.271c-0.259-0.459-0.529-0.911-0.81-1.357
		c-0.106-0.169-0.214-0.337-0.323-0.504c-0.292-0.445-0.593-0.883-0.906-1.315c-0.076-0.104-0.147-0.211-0.224-0.315
		c-0.387-0.521-0.79-1.029-1.206-1.526c-0.107-0.128-0.219-0.252-0.328-0.378c-0.329-0.382-0.666-0.755-1.011-1.12
		c-0.131-0.138-0.262-0.278-0.396-0.414c-0.428-0.439-0.866-0.868-1.319-1.283c-0.03-0.028-0.058-0.057-0.089-0.084
		c-0.482-0.439-0.981-0.859-1.488-1.27c-0.144-0.116-0.29-0.228-0.435-0.342c-0.395-0.308-0.795-0.608-1.203-0.898
		c-0.145-0.103-0.288-0.209-0.435-0.309c-0.538-0.371-1.085-0.73-1.645-1.069c-0.069-0.042-0.142-0.08-0.211-0.121
		c-0.497-0.296-1.003-0.578-1.517-0.849c-0.171-0.09-0.344-0.178-0.517-0.265c-0.463-0.234-0.931-0.456-1.405-0.668
		c-0.142-0.064-0.281-0.131-0.424-0.191c-0.605-0.261-1.218-0.504-1.841-0.729c-0.135-0.049-0.273-0.092-0.411-0.139
		c-0.503-0.174-1.011-0.337-1.524-0.488c-0.191-0.056-0.382-0.111-0.574-0.163c-0.548-0.15-1.1-0.286-1.659-0.409
		c-0.108-0.024-0.214-0.052-0.322-0.075c-0.658-0.137-1.325-0.252-1.997-0.349c-0.179-0.026-0.361-0.045-0.542-0.069
		c-0.52-0.067-1.042-0.121-1.57-0.163c-0.199-0.016-0.398-0.034-0.598-0.045c-0.693-0.043-1.389-0.072-2.093-0.072
		c-0.766,0-1.524,0.036-2.278,0.086c-0.187,0.013-0.373,0.027-0.559,0.043c-0.748,0.064-1.491,0.143-2.224,0.254h-0.001
		c-0.736,0.112-1.462,0.258-2.18,0.418c-0.177,0.039-0.353,0.08-0.53,0.122c-0.706,0.17-1.406,0.354-2.095,0.568
		c-0.007,0.002-0.013,0.003-0.018,0.005c0.61-1.104,1.197-2.219,1.77-3.344c0.177-0.347,0.344-0.699,0.517-1.05
		c0.388-0.783,0.773-1.566,1.144-2.359c0.2-0.428,0.391-0.858,0.586-1.289c0.329-0.726,0.653-1.454,0.965-2.188
		c0.196-0.458,0.387-0.919,0.576-1.379c0.297-0.721,0.586-1.445,0.868-2.173c0.181-0.465,0.359-0.931,0.533-1.398
		c0.279-0.748,0.546-1.5,0.809-2.255c0.157-0.45,0.316-0.898,0.467-1.35c0.277-0.829,0.539-1.664,0.797-2.5
		c0.117-0.379,0.241-0.757,0.355-1.137c0.725-2.442,1.369-4.914,1.93-7.413c0.089-0.393,0.165-0.79,0.25-1.185
		c0.183-0.858,0.361-1.717,0.524-2.58c0.091-0.479,0.172-0.96,0.256-1.44c0.138-0.789,0.271-1.579,0.394-2.373
		c0.078-0.509,0.15-1.019,0.222-1.531c0.108-0.778,0.209-1.559,0.302-2.342c0.061-0.515,0.12-1.029,0.174-1.545
		c0.083-0.8,0.155-1.601,0.221-2.404c0.041-0.497,0.085-0.993,0.12-1.492c0.061-0.876,0.105-1.755,0.145-2.633
		c0.019-0.426,0.046-0.85,0.062-1.277c0.045-1.305,0.072-2.613,0.072-3.926c0-1.406-0.035-2.804-0.086-4.198
		c-0.011-0.29-0.021-0.579-0.034-0.868c-0.059-1.35-0.142-2.695-0.249-4.033c-0.019-0.24-0.043-0.478-0.064-0.717
		c-0.107-1.242-0.233-2.479-0.382-3.709c-0.023-0.19-0.042-0.381-0.066-0.57c-0.165-1.324-0.359-2.641-0.57-3.95
		c-0.048-0.296-0.097-0.592-0.147-0.889c-0.223-1.313-0.462-2.623-0.73-3.92c-0.027-0.131-0.057-0.259-0.085-0.39
		c-0.255-1.215-0.533-2.422-0.827-3.623c-0.065-0.266-0.128-0.532-0.195-0.797c-0.317-1.255-0.655-2.5-1.014-3.738
		c-0.078-0.268-0.159-0.535-0.239-0.802c-0.349-1.171-0.713-2.335-1.099-3.491c-0.042-0.126-0.081-0.255-0.124-0.382
		c-0.416-1.231-0.859-2.451-1.317-3.663c-0.107-0.283-0.214-0.568-0.324-0.851c-0.462-1.195-0.939-2.382-1.441-3.557
		c-0.082-0.192-0.169-0.383-0.252-0.574c-0.464-1.07-0.944-2.131-1.439-3.184c-0.105-0.223-0.206-0.448-0.314-0.669
		c-0.547-1.145-1.116-2.277-1.7-3.4c-0.135-0.259-0.272-0.516-0.409-0.774c-0.608-1.145-1.227-2.281-1.871-3.402
		c-0.019-0.035-0.041-0.068-0.061-0.103c-0.639-1.107-1.302-2.199-1.976-3.281c-0.149-0.239-0.297-0.479-0.448-0.717
		c-0.678-1.07-1.372-2.129-2.084-3.175c-0.134-0.197-0.271-0.39-0.406-0.586c-0.669-0.97-1.352-1.929-2.052-2.876
		c-0.077-0.104-0.147-0.211-0.225-0.315C401.412,171.071,420.073,212.053,420.073,257.307z M143.939,97.658
		c8.636,2.562,15.559,9.117,18.664,17.508c0.186,0.504,0.355,1.012,0.511,1.522c0.089,0.289,0.179,0.576,0.258,0.868
		c0.144,0.528,0.263,1.059,0.375,1.593c0.061,0.288,0.13,0.571,0.182,0.862c0.103,0.573,0.174,1.151,0.241,1.731
		c0.029,0.255,0.074,0.507,0.096,0.764c0.074,0.838,0.116,1.681,0.116,2.529c0,12.927-8.636,23.876-20.442,27.378v-13.307V97.658
		H143.939z M106.234,193.333c-0.003-0.006-0.008-0.013-0.012-0.019l-1.344-2.607c0.464-0.089,0.93-0.162,1.398-0.227
		c0.055-0.006,0.11-0.006,0.165-0.014c0.617-0.082,1.241-0.145,1.866-0.187c0.004,0,0.008,0,0.012-0.001
		c0.625-0.042,1.252-0.063,1.877-0.063c10.75,0,20.485,5.929,25.406,15.473c3.493,6.778,4.138,14.511,1.816,21.775
		c-1.475,4.612-4.033,8.683-7.441,11.936L106.234,193.333z M83.204,223.973c2.123,0.63,4.137,1.508,6.023,2.588
		c0.147,0.084,0.294,0.169,0.439,0.254c0.534,0.318,1.058,0.652,1.569,1.003c0.068,0.046,0.137,0.091,0.205,0.138
		c2.44,1.71,4.603,3.79,6.404,6.16c0.008,0.01,0.015,0.021,0.023,0.03c0.428,0.565,0.833,1.149,1.219,1.746
		c0.035,0.054,0.07,0.107,0.105,0.161c0.366,0.575,0.711,1.164,1.036,1.765c0.029,0.054,0.061,0.107,0.09,0.161
		c0.688,1.292,1.278,2.643,1.763,4.042c0.052,0.15,0.094,0.304,0.144,0.455c0.17,0.518,0.328,1.04,0.468,1.571
		c0.065,0.246,0.122,0.495,0.181,0.744c0.107,0.453,0.203,0.911,0.289,1.372c0.05,0.268,0.097,0.536,0.138,0.806
		c0.075,0.481,0.133,0.968,0.183,1.455c0.025,0.24,0.056,0.479,0.075,0.721c0.056,0.729,0.092,1.463,0.092,2.205
		c0,0.751-0.036,1.495-0.093,2.232c-0.024,0.308-0.067,0.611-0.102,0.917c-0.045,0.415-0.092,0.831-0.156,1.241
		c-0.061,0.385-0.135,0.766-0.212,1.148c-0.062,0.315-0.125,0.629-0.198,0.939c-0.099,0.424-0.21,0.843-0.328,1.26
		c-0.071,0.254-0.147,0.506-0.226,0.758c-0.139,0.444-0.286,0.885-0.446,1.322c-0.077,0.21-0.161,0.416-0.242,0.624
		c-0.181,0.456-0.365,0.911-0.569,1.357c-0.078,0.171-0.164,0.337-0.245,0.506c-0.224,0.466-0.45,0.931-0.698,1.385
		c-0.058,0.107-0.125,0.21-0.186,0.316c-0.544,0.963-1.144,1.894-1.796,2.789c-0.079,0.108-0.149,0.222-0.229,0.328
		c-0.192,0.257-0.403,0.5-0.604,0.751c-0.256,0.318-0.508,0.638-0.777,0.945c-0.183,0.209-0.377,0.406-0.566,0.61
		c-0.309,0.332-0.619,0.663-0.943,0.979c-0.184,0.179-0.375,0.351-0.563,0.526c-0.347,0.321-0.698,0.638-1.062,0.943
		c-0.191,0.161-0.388,0.317-0.584,0.472c-0.373,0.296-0.752,0.585-1.139,0.863c-0.209,0.149-0.419,0.296-0.632,0.44
		c-0.384,0.259-0.776,0.509-1.174,0.751c-0.235,0.143-0.469,0.284-0.709,0.421c-0.384,0.218-0.776,0.424-1.171,0.624
		c-0.267,0.135-0.531,0.273-0.803,0.401c-1.284,0.603-2.614,1.123-3.993,1.532v-54.757H83.204z M99.251,289.035
		c0.176-0.114,0.343-0.238,0.517-0.353c0.293-0.195,0.583-0.395,0.871-0.596c0.37-0.257,0.738-0.515,1.098-0.782
		c0.248-0.184,0.489-0.377,0.733-0.566c0.712-0.552,1.408-1.125,2.083-1.717c0.218-0.191,0.441-0.375,0.655-0.571
		c0.293-0.267,0.574-0.545,0.859-0.819c0.296-0.284,0.593-0.569,0.881-0.861c0.248-0.251,0.488-0.508,0.729-0.764
		c0.328-0.348,0.651-0.701,0.966-1.058c0.192-0.218,0.383-0.437,0.571-0.659c0.387-0.455,0.762-0.919,1.131-1.389
		c0.108-0.138,0.218-0.275,0.325-0.414c4.554-5.956,7.645-13.084,8.741-20.845c0.023-0.156,0.039-0.312,0.059-0.468
		c0.083-0.637,0.155-1.276,0.21-1.92c0.011-0.118,0.029-0.235,0.039-0.353l0.088,0.171c0.162,0.315,0.348,0.608,0.543,0.891
		c0.052,0.075,0.106,0.147,0.159,0.219c0.165,0.224,0.339,0.436,0.524,0.638c0.046,0.052,0.091,0.106,0.139,0.156
		c0.23,0.239,0.473,0.463,0.728,0.669c0.057,0.046,0.118,0.088,0.176,0.133c0.209,0.161,0.425,0.31,0.648,0.449
		c0.077,0.048,0.152,0.095,0.23,0.141c0.282,0.163,0.57,0.315,0.868,0.442c0.011,0.004,0.022,0.008,0.031,0.012
		c0.289,0.122,0.586,0.223,0.886,0.31c0.089,0.026,0.178,0.049,0.268,0.071c0.253,0.065,0.507,0.117,0.765,0.158
		c0.07,0.011,0.138,0.026,0.21,0.035c0.32,0.041,0.642,0.063,0.966,0.066c0.024,0,0.046,0.004,0.07,0.004
		c0.071,0,0.143-0.011,0.214-0.013c0.195-0.005,0.388-0.015,0.583-0.034c0.109-0.011,0.218-0.026,0.328-0.041
		c0.187-0.026,0.373-0.059,0.559-0.099c0.107-0.023,0.214-0.045,0.321-0.074c0.198-0.051,0.393-0.112,0.589-0.179
		c0.091-0.031,0.183-0.057,0.273-0.092c0.283-0.108,0.564-0.229,0.841-0.371c10.629-5.479,18.489-14.769,22.131-26.158
		c1.365-4.271,2.078-8.646,2.144-13.006c0.111-7.267-1.567-14.494-4.992-21.138c-0.012-0.024-0.027-0.045-0.039-0.07
		c-0.433-0.838-0.895-1.654-1.375-2.455c-0.163-0.271-0.336-0.534-0.504-0.801c-0.346-0.551-0.698-1.096-1.066-1.628
		c-0.203-0.294-0.412-0.584-0.621-0.872c-0.36-0.496-0.73-0.984-1.108-1.463c-0.218-0.277-0.437-0.555-0.662-0.826
		c-0.415-0.502-0.845-0.988-1.28-1.469c-0.2-0.221-0.393-0.449-0.598-0.665c-0.638-0.677-1.292-1.335-1.967-1.969
		c-0.124-0.117-0.257-0.225-0.384-0.339c-0.562-0.515-1.134-1.017-1.721-1.5c-0.267-0.221-0.542-0.429-0.814-0.643
		c-0.463-0.364-0.93-0.722-1.406-1.067c-0.307-0.223-0.617-0.439-0.93-0.653c-0.465-0.319-0.937-0.628-1.414-0.929
		c-0.32-0.202-0.64-0.405-0.965-0.6c-0.517-0.308-1.043-0.599-1.572-0.885c-0.292-0.158-0.578-0.325-0.873-0.477
		c-0.798-0.41-1.607-0.798-2.43-1.16c-0.289-0.126-0.585-0.237-0.876-0.357c-0.566-0.235-1.134-0.466-1.711-0.678
		c-0.381-0.139-0.765-0.266-1.15-0.395c-0.502-0.169-1.005-0.332-1.513-0.483c-0.409-0.121-0.821-0.237-1.233-0.347
		c-0.502-0.134-1.006-0.255-1.513-0.372c-0.417-0.095-0.833-0.193-1.254-0.277c-0.11-0.022-0.218-0.052-0.329-0.072
		c2.776-4.683,5.787-9.22,9.02-13.598v0.489c0,4.479,3.629,8.108,8.108,8.108c24.684,0,44.765-20.081,44.765-44.765
		c0-0.787-0.022-1.569-0.062-2.345c-0.012-0.224-0.036-0.445-0.051-0.669c-0.037-0.556-0.075-1.11-0.132-1.659
		c-0.026-0.251-0.065-0.499-0.095-0.749c-0.064-0.521-0.126-1.043-0.208-1.559c-0.039-0.251-0.09-0.498-0.134-0.748
		c-0.09-0.516-0.182-1.03-0.29-1.539c-0.011-0.053-0.018-0.106-0.03-0.159c23.927-13.277,50.935-20.266,78.508-20.266
		c5.413,0,10.765,0.267,16.044,0.788c-0.572,0.034-1.14,0.092-1.711,0.134c-0.659,0.049-1.319,0.094-1.977,0.155
		c-0.903,0.083-1.802,0.186-2.702,0.291c-0.625,0.072-1.251,0.137-1.873,0.221c-0.969,0.129-1.934,0.283-2.898,0.437
		c-0.547,0.088-1.096,0.162-1.641,0.258c-1.241,0.217-2.477,0.463-3.708,0.721c-0.264,0.055-0.531,0.099-0.793,0.157
		c-1.492,0.323-2.976,0.679-4.453,1.062c-0.451,0.117-0.896,0.253-1.345,0.375c-1.025,0.28-2.05,0.561-3.066,0.869
		c-0.565,0.171-1.125,0.361-1.687,0.541c-0.893,0.286-1.786,0.572-2.671,0.88c-0.6,0.209-1.195,0.432-1.79,0.651
		c-0.84,0.308-1.678,0.618-2.51,0.946c-0.61,0.24-1.214,0.492-1.819,0.742c-0.81,0.335-1.616,0.676-2.417,1.029
		c-0.609,0.268-1.213,0.545-1.816,0.824c-0.788,0.364-1.573,0.738-2.353,1.121c-0.598,0.293-1.195,0.59-1.787,0.895
		c-0.778,0.399-1.55,0.811-2.32,1.228c-0.578,0.313-1.156,0.627-1.729,0.951c-0.777,0.439-1.545,0.894-2.311,1.351
		c-0.55,0.329-1.102,0.653-1.646,0.991c-0.79,0.491-1.569,1-2.347,1.51c-0.505,0.331-1.014,0.654-1.513,0.993
		c-0.853,0.579-1.69,1.18-2.527,1.784c-0.409,0.294-0.825,0.577-1.229,0.878c-1.235,0.915-2.454,1.853-3.653,2.82
		c-7.31,5.902-13.826,12.684-19.416,20.135c-9.317,12.419-16.063,26.696-19.628,41.859c-0.356,0.918-0.637,1.889-0.88,2.883
		c-0.432,1.759-0.709,3.621-0.788,5.596c-0.739,4.762-1.173,9.707-1.292,14.715c-3.691,25.306-14.384,50.959-21.992,66.826
		c-3.95,8.236-7.069,13.838-7.943,15.38c-6.888,9.392-11.543,19.976-13.78,31.194c-0.203,1.019-0.387,2.045-0.55,3.074
		c-0.326,2.059-0.572,4.139-0.736,6.234c-0.164,2.095-0.248,4.206-0.248,6.329c0,1.25,0.037,2.49,0.094,3.725
		c0.018,0.385,0.046,0.765,0.07,1.149c0.053,0.864,0.117,1.724,0.197,2.58c0.04,0.423,0.082,0.844,0.129,1.266
		c0.094,0.857,0.204,1.71,0.326,2.559c0.053,0.368,0.099,0.736,0.157,1.102c0.022,0.137,0.037,0.278,0.059,0.415
		C111.953,330.577,103.526,310.679,99.251,289.035z M258.105,419.277c-15.014,0-29.575-2.017-43.418-5.819
		c0.102-0.016,0.201-0.04,0.303-0.057c1.152-0.191,2.297-0.409,3.437-0.65c0.156-0.034,0.311-0.063,0.467-0.096
		c1.18-0.257,2.351-0.546,3.514-0.856c0.228-0.061,0.456-0.122,0.683-0.185c1.16-0.32,2.312-0.663,3.453-1.035
		c0.151-0.05,0.302-0.103,0.453-0.154c1.104-0.368,2.199-0.758,3.283-1.172c0.122-0.046,0.244-0.09,0.366-0.136
		c1.124-0.437,2.234-0.904,3.336-1.39c0.211-0.093,0.422-0.187,0.632-0.282c1.088-0.492,2.165-1.005,3.229-1.547
		c0.156-0.079,0.309-0.162,0.464-0.242c1.04-0.537,2.068-1.095,3.083-1.678c0.088-0.051,0.177-0.098,0.265-0.148
		c1.048-0.608,2.078-1.244,3.097-1.899c0.191-0.123,0.383-0.246,0.573-0.371c0.997-0.653,1.982-1.328,2.949-2.026
		c0.155-0.111,0.306-0.226,0.459-0.338c0.957-0.702,1.902-1.422,2.828-2.167c0.056-0.045,0.115-0.09,0.172-0.135
		c0.95-0.769,1.878-1.566,2.793-2.38c0.17-0.151,0.341-0.302,0.51-0.454c0.888-0.803,1.759-1.626,2.612-2.471
		c0.147-0.146,0.291-0.294,0.437-0.44c0.858-0.864,1.704-1.744,2.525-2.651c0.027-0.029,0.055-0.057,0.081-0.088
		c0.832-0.921,1.639-1.869,2.431-2.833c0.146-0.178,0.293-0.355,0.438-0.533c0.76-0.94,1.5-1.9,2.22-2.88
		c0.133-0.182,0.264-0.365,0.396-0.549c0.742-1.026,1.468-2.067,2.165-3.134c1.275-1.949,2.468-3.962,3.551-5.989
		c0.268-0.426,0.566-0.892,0.878-1.374c0.065-0.102,0.131-0.203,0.198-0.306c0.321-0.495,0.662-1.015,1.027-1.565
		c0.044-0.067,0.092-0.137,0.137-0.204c0.339-0.509,0.701-1.044,1.077-1.597c0.075-0.109,0.147-0.216,0.223-0.326
		c0.413-0.603,0.85-1.232,1.307-1.883c0.09-0.128,0.183-0.258,0.273-0.387c0.439-0.622,0.895-1.26,1.373-1.922
		c0.055-0.076,0.106-0.148,0.162-0.225c0.512-0.708,1.054-1.443,1.612-2.193c0.124-0.168,0.251-0.336,0.377-0.506
		c0.575-0.77,1.168-1.555,1.79-2.365c0.041-0.053,0.084-0.109,0.125-0.162c0.588-0.765,1.203-1.551,1.833-2.35
		c0.147-0.186,0.292-0.371,0.441-0.559c0.664-0.837,1.349-1.69,2.058-2.56c0.132-0.162,0.269-0.328,0.403-0.491
		c0.645-0.788,1.309-1.588,1.992-2.402c0.141-0.168,0.277-0.332,0.419-0.501c0.764-0.907,1.556-1.83,2.367-2.766
		c0.188-0.217,0.38-0.437,0.572-0.656c0.791-0.906,1.6-1.823,2.435-2.753c0.069-0.077,0.135-0.152,0.204-0.229
		c0.879-0.978,1.79-1.973,2.718-2.976c0.226-0.244,0.452-0.488,0.68-0.733c0.936-1.004,1.891-2.018,2.876-3.045
		c0.136-0.143,0.279-0.288,0.416-0.43c0.898-0.933,1.819-1.875,2.758-2.823c0.232-0.235,0.463-0.469,0.697-0.705
		c1.038-1.041,2.099-2.092,3.185-3.149c0.082-0.08,0.166-0.16,0.249-0.24c-0.028,0.122-0.048,0.246-0.075,0.37
		c-0.077,0.348-0.147,0.697-0.213,1.049c-0.044,0.235-0.088,0.469-0.126,0.706c-0.061,0.366-0.111,0.735-0.16,1.105
		c-0.029,0.227-0.062,0.453-0.086,0.682c-0.044,0.406-0.077,0.816-0.106,1.226c-0.014,0.195-0.034,0.388-0.044,0.584
		c-0.034,0.608-0.053,1.218-0.053,1.835c0,18.371,14.946,33.317,33.317,33.317c0.56,0,1.117-0.015,1.67-0.042
		c0.188-0.01,0.375-0.028,0.562-0.041c0.364-0.024,0.728-0.048,1.089-0.083c0.219-0.022,0.436-0.053,0.654-0.079
		c0.325-0.039,0.651-0.076,0.972-0.124c0.232-0.035,0.463-0.079,0.694-0.118c0.303-0.052,0.606-0.103,0.907-0.162
		c0.237-0.048,0.471-0.103,0.706-0.156c0.291-0.065,0.582-0.129,0.87-0.201c0.237-0.059,0.469-0.125,0.704-0.19
		c0.282-0.078,0.564-0.156,0.843-0.24c0.235-0.071,0.466-0.148,0.698-0.225c0.273-0.09,0.546-0.181,0.816-0.277
		c0.232-0.083,0.462-0.171,0.692-0.259c0.265-0.102,0.53-0.204,0.792-0.312c0.228-0.094,0.453-0.191,0.678-0.291
		c0.258-0.114,0.515-0.229,0.77-0.348c0.224-0.105,0.444-0.213,0.665-0.322c0.251-0.124,0.501-0.252,0.747-0.383
		c0.217-0.115,0.432-0.231,0.646-0.351c0.244-0.136,0.486-0.276,0.726-0.418c0.211-0.124,0.421-0.251,0.629-0.379
		c0.238-0.148,0.472-0.299,0.706-0.453c0.203-0.133,0.405-0.267,0.604-0.404c0.232-0.16,0.462-0.325,0.69-0.491
		c0.195-0.142,0.388-0.281,0.579-0.427c0.226-0.172,0.449-0.349,0.67-0.528c0.185-0.148,0.371-0.295,0.552-0.448
		c0.222-0.185,0.437-0.376,0.653-0.566c0.174-0.154,0.35-0.305,0.521-0.462c0.043-0.04,0.09-0.078,0.133-0.118
		c0.021,0.082,0.046,0.162,0.068,0.244c0.055,0.218,0.12,0.432,0.179,0.649c1.282,4.662,3.553,8.986,6.682,12.67
		C340.698,402.736,300.089,419.277,258.105,419.277z M396.208,369.206c-3.5,0-6.756-1.06-9.469-2.872
		c-0.075-0.05-0.146-0.102-0.221-0.152c-0.383-0.265-0.758-0.542-1.118-0.836c-0.029-0.024-0.059-0.045-0.088-0.069
		c-0.404-0.335-0.791-0.688-1.163-1.057c-0.023-0.023-0.044-0.045-0.066-0.067c-0.755-0.76-1.44-1.588-2.042-2.478
		c-0.007-0.011-0.014-0.021-0.021-0.031c-0.596-0.882-1.108-1.825-1.532-2.814c-0.019-0.045-0.04-0.091-0.058-0.136
		c-0.201-0.48-0.382-0.97-0.539-1.471c-0.013-0.042-0.024-0.085-0.037-0.129c-0.141-0.458-0.259-0.925-0.36-1.399
		c-0.016-0.075-0.035-0.147-0.05-0.222c-0.097-0.488-0.172-0.984-0.227-1.485c-0.012-0.106-0.021-0.213-0.03-0.319
		c-0.046-0.516-0.079-1.036-0.079-1.563c0-9.431,7.671-17.102,17.1-17.102c0.539,0,1.07,0.032,1.597,0.081
		c0.146,0.013,0.29,0.035,0.435,0.052c0.398,0.048,0.792,0.106,1.18,0.181c0.136,0.026,0.273,0.052,0.409,0.081
		c0.446,0.096,0.888,0.209,1.32,0.341c0.059,0.018,0.12,0.032,0.179,0.051c1.015,0.319,1.988,0.734,2.911,1.227
		c0.108,0.057,0.213,0.121,0.32,0.181c0.337,0.19,0.668,0.391,0.991,0.602c0.132,0.086,0.263,0.174,0.393,0.265
		c4.445,3.092,7.366,8.229,7.366,14.042C413.312,361.535,405.639,369.206,396.208,369.206z"/>
	<path style="fill:#202020;" d="M489.954,151.917c-14.13-31.715-34.249-59.825-59.795-83.547c-3.282-3.046-8.411-2.856-11.459,0.425
		c-3.046,3.281-2.857,8.411,0.425,11.459c48.719,45.239,76.66,109.296,76.66,175.747c0,132.218-107.567,239.785-239.784,239.785
		C123.784,495.785,16.216,388.218,16.216,256.001S123.784,16.215,256.002,16.215c53.207,0,103.594,17.061,145.714,49.338
		c3.552,2.724,8.643,2.049,11.367-1.505c2.724-3.553,2.05-8.643-1.505-11.367C366.603,18.217,312.806,0,256.002,0
		c-68.38,0-132.669,26.629-181.021,74.98s-74.98,112.64-74.98,181.02S26.63,388.669,74.981,437.02S187.621,512,256.001,512
		c68.379,0,132.667-26.629,181.018-74.98s74.98-112.639,74.98-181.019C512,219.77,504.584,184.751,489.954,151.917z"/>
	<path style="fill:#202020;" d="M210.053,176.743c1.308,0,2.636-0.317,3.867-0.986l75.431-41.027
		c3.934-2.139,5.387-7.062,3.248-10.997c-2.139-3.933-7.06-5.389-10.997-3.248l-75.431,41.027
		c-3.934,2.139-5.387,7.062-3.249,10.997C204.393,175.211,207.177,176.743,210.053,176.743z"/>
	<path style="fill:#202020;" d="M197.517,224.684c1.308,0,2.636-0.317,3.867-0.986l89.535-48.699
		c3.934-2.139,5.387-7.062,3.249-10.997c-2.139-3.933-7.061-5.388-10.997-3.249l-89.535,48.699
		c-3.934,2.139-5.387,7.062-3.249,10.997C191.858,223.152,194.643,224.684,197.517,224.684z"/>
	<path style="fill:#202020;" d="M309.231,163.922c1.308,0,2.636-0.317,3.867-0.986l22.503-12.239
		c3.934-2.139,5.387-7.063,3.248-10.997c-2.139-3.933-7.061-5.388-10.997-3.248l-22.503,12.239
		c-3.934,2.139-5.387,7.063-3.249,10.997C303.571,162.39,306.356,163.922,309.231,163.922z"/>
	<path style="fill:#202020;" d="M179.68,275.508c1.308,0,2.636-0.317,3.867-0.986l73.942-40.217
		c3.934-2.139,5.387-7.062,3.248-10.996c-2.139-3.934-7.06-5.39-10.997-3.25l-73.942,40.217c-3.934,2.139-5.387,7.062-3.248,10.996
		C174.021,273.976,176.806,275.508,179.68,275.508z"/>
	<path style="fill:#202020;" d="M268.369,219.157c1.47,2.703,4.256,4.234,7.13,4.234c1.308,0,2.636-0.317,3.867-0.986l77.183-41.982
		c3.934-2.139,5.387-7.063,3.248-10.997c-2.139-3.933-7.06-5.388-10.997-3.249l-77.183,41.982
		C267.684,210.3,266.23,215.224,268.369,219.157z"/>
	<path style="fill:#202020;" d="M158.034,329.518l47.935-26.07c3.934-2.139,5.388-7.062,3.25-10.996
		c-2.139-3.934-7.062-5.39-10.996-3.25l-47.935,26.07c-3.934,2.139-5.388,7.062-3.25,10.996c1.47,2.704,4.256,4.235,7.13,4.235
		C155.476,330.504,156.805,330.187,158.034,329.518z"/>
	<path style="fill:#202020;" d="M218.912,277.95c-3.935,2.139-5.388,7.062-3.25,10.996c1.47,2.704,4.256,4.235,7.13,4.235
		c1.308,0,2.636-0.317,3.866-0.986l140.139-76.22c3.935-2.139,5.388-7.062,3.25-10.996c-2.139-3.935-7.063-5.39-10.996-3.25
		L218.912,277.95z"/>
	<path style="fill:#202020;" d="M283.781,283.789l-128.615,69.954c-3.934,2.139-5.387,7.062-3.248,10.997
		c1.47,2.703,4.256,4.234,7.13,4.234c1.308,0,2.636-0.317,3.867-0.986l128.615-69.954c3.934-2.139,5.387-7.062,3.249-10.997
		C292.638,283.105,287.717,281.649,283.781,283.789z"/>
	<path style="fill:#202020;" d="M348.036,258.073c-2.139-3.934-7.062-5.389-10.996-3.25l-33.098,18.001
		c-3.935,2.139-5.388,7.062-3.25,10.996c1.47,2.704,4.256,4.235,7.13,4.235c1.308,0,2.636-0.317,3.866-0.986l33.098-18.001
		C348.721,266.929,350.175,262.006,348.036,258.073z"/>
	<path style="fill:#202020;" d="M241.363,349.413l-47.725,25.958c-3.935,2.139-5.388,7.062-3.25,10.996
		c1.47,2.704,4.256,4.235,7.13,4.235c1.308,0,2.636-0.317,3.866-0.986l47.725-25.958c3.935-2.139,5.388-7.062,3.25-10.996
		C250.221,348.729,245.296,347.273,241.363,349.413z"/>
</g>
<g style="opacity:0.15;">
	<path style="fill:#202020;" d="M390.976,295.235c0-9.009,4.73-16.911,11.838-21.368c-3.877-2.43-8.458-3.841-13.371-3.841
		c-13.923,0-25.21,11.285-25.21,25.207c0,13.924,11.287,25.21,25.21,25.21c4.913,0,9.495-1.411,13.371-3.842
		C395.706,312.147,390.976,304.246,390.976,295.235z"/>
</g>
<g style="opacity:0.15;">
	<path style="fill:#202020;" d="M397.743,352.104c0-9.009,4.729-16.911,11.837-21.368c-3.878-2.43-8.459-3.841-13.372-3.841
		c-13.923,0-25.207,11.286-25.207,25.207c0,13.924,11.285,25.21,25.207,25.21c4.913,0,9.495-1.411,13.372-3.842
		C402.473,369.015,397.743,361.114,397.743,352.104z"/>
</g>
</svg>